# Blender 5.0.0
# www.blender.org
mtllib rounded cube.mtl
o Cube
v 0.800000 0.800000 -1.000000
v 0.800000 1.000000 -0.800000
v 1.000000 0.800000 -0.800000
v 0.800000 0.876537 -0.984776
v 0.800000 0.941421 -0.941421
v 0.876537 0.800000 -0.984776
v 0.878455 0.878455 -0.966402
v 0.874474 0.931251 -0.931251
v 0.915470 0.915470 -0.915470
v 0.876537 0.984776 -0.800000
v 0.941421 0.941421 -0.800000
v 0.800000 0.984776 -0.876537
v 0.878455 0.966402 -0.878455
v 0.931251 0.931251 -0.874474
v 0.984776 0.800000 -0.876537
v 0.941421 0.800000 -0.941421
v 0.984776 0.876537 -0.800000
v 0.966402 0.878455 -0.878455
v 0.931251 0.874474 -0.931251
v 0.800000 -1.000000 -0.800000
v 0.800000 -0.800000 -1.000000
v 1.000000 -0.800000 -0.800000
v 0.800000 -0.984776 -0.876537
v 0.800000 -0.941421 -0.941421
v 0.876537 -0.984776 -0.800000
v 0.878455 -0.966402 -0.878455
v 0.874474 -0.931251 -0.931251
v 0.915470 -0.915470 -0.915470
v 0.876537 -0.800000 -0.984776
v 0.941421 -0.800000 -0.941421
v 0.800000 -0.876537 -0.984776
v 0.878455 -0.878455 -0.966402
v 0.931251 -0.874474 -0.931251
v 0.984776 -0.876537 -0.800000
v 0.941421 -0.941421 -0.800000
v 0.984776 -0.800000 -0.876537
v 0.966402 -0.878455 -0.878455
v 0.931251 -0.931251 -0.874474
v 1.000000 0.800000 0.800000
v 0.800000 1.000000 0.800000
v 0.800000 0.800000 1.000000
v 0.984776 0.876537 0.800000
v 0.941421 0.941421 0.800000
v 0.984776 0.800000 0.876537
v 0.966402 0.878455 0.878455
v 0.931251 0.931251 0.874474
v 0.915470 0.915470 0.915470
v 0.800000 0.984776 0.876537
v 0.800000 0.941421 0.941421
v 0.876537 0.984776 0.800000
v 0.878455 0.966402 0.878455
v 0.874474 0.931251 0.931251
v 0.876537 0.800000 0.984776
v 0.941421 0.800000 0.941421
v 0.800000 0.876537 0.984776
v 0.878455 0.878455 0.966402
v 0.931251 0.874474 0.931251
v 1.000000 -0.800000 0.800000
v 0.800000 -0.800000 1.000000
v 0.800000 -1.000000 0.800000
v 0.984776 -0.800000 0.876537
v 0.941421 -0.800000 0.941421
v 0.984776 -0.876537 0.800000
v 0.966402 -0.878455 0.878455
v 0.931251 -0.874474 0.931251
v 0.915470 -0.915470 0.915470
v 0.800000 -0.876537 0.984776
v 0.800000 -0.941421 0.941421
v 0.876537 -0.800000 0.984776
v 0.878455 -0.878455 0.966402
v 0.874474 -0.931251 0.931251
v 0.876537 -0.984776 0.800000
v 0.941421 -0.941421 0.800000
v 0.800000 -0.984776 0.876537
v 0.878455 -0.966402 0.878455
v 0.931251 -0.931251 0.874474
v -0.800000 0.800000 -1.000000
v -1.000000 0.800000 -0.800000
v -0.800000 1.000000 -0.800000
v -0.876537 0.800000 -0.984776
v -0.941421 0.800000 -0.941421
v -0.800000 0.876537 -0.984776
v -0.878455 0.878455 -0.966402
v -0.931251 0.874474 -0.931251
v -0.915470 0.915470 -0.915470
v -0.984776 0.876537 -0.800000
v -0.941421 0.941421 -0.800000
v -0.984776 0.800000 -0.876537
v -0.966402 0.878455 -0.878455
v -0.931251 0.931251 -0.874474
v -0.800000 0.984776 -0.876537
v -0.800000 0.941421 -0.941421
v -0.876537 0.984776 -0.800000
v -0.878455 0.966402 -0.878455
v -0.874474 0.931251 -0.931251
v -1.000000 -0.800000 -0.800000
v -0.800000 -0.800000 -1.000000
v -0.800000 -1.000000 -0.800000
v -0.984776 -0.800000 -0.876537
v -0.941421 -0.800000 -0.941421
v -0.984776 -0.876537 -0.800000
v -0.966402 -0.878455 -0.878455
v -0.931251 -0.874474 -0.931251
v -0.915470 -0.915470 -0.915470
v -0.800000 -0.876537 -0.984776
v -0.800000 -0.941421 -0.941421
v -0.876537 -0.800000 -0.984776
v -0.878455 -0.878455 -0.966402
v -0.874474 -0.931251 -0.931251
v -0.876537 -0.984776 -0.800000
v -0.941421 -0.941421 -0.800000
v -0.800000 -0.984776 -0.876537
v -0.878455 -0.966402 -0.878455
v -0.931251 -0.931251 -0.874474
v -1.000000 0.800000 0.800000
v -0.800000 0.800000 1.000000
v -0.800000 1.000000 0.800000
v -0.984776 0.800000 0.876537
v -0.941421 0.800000 0.941421
v -0.984776 0.876537 0.800000
v -0.966402 0.878455 0.878455
v -0.931251 0.874474 0.931251
v -0.915470 0.915470 0.915470
v -0.800000 0.876537 0.984776
v -0.800000 0.941421 0.941421
v -0.876537 0.800000 0.984776
v -0.878455 0.878455 0.966402
v -0.874474 0.931251 0.931251
v -0.876537 0.984776 0.800000
v -0.941421 0.941421 0.800000
v -0.800000 0.984776 0.876537
v -0.878455 0.966402 0.878455
v -0.931251 0.931251 0.874474
v -0.800000 -1.000000 0.800000
v -0.800000 -0.800000 1.000000
v -1.000000 -0.800000 0.800000
v -0.800000 -0.984776 0.876537
v -0.800000 -0.941421 0.941421
v -0.876537 -0.984776 0.800000
v -0.878455 -0.966402 0.878455
v -0.874474 -0.931251 0.931251
v -0.915470 -0.915470 0.915470
v -0.876537 -0.800000 0.984776
v -0.941421 -0.800000 0.941421
v -0.800000 -0.876537 0.984776
v -0.878455 -0.878455 0.966402
v -0.931251 -0.874474 0.931251
v -0.984776 -0.876537 0.800000
v -0.941421 -0.941421 0.800000
v -0.984776 -0.800000 0.876537
v -0.966402 -0.878455 0.878455
v -0.931251 -0.931251 0.874474
vn 0.1004 0.1004 -0.9899
vn 0.0981 0.3792 -0.9201
vn 0.3673 0.3673 -0.8545
vn 0.3792 0.0981 -0.9201
vn 0.0919 0.7041 -0.7041
vn 0.3347 0.6663 -0.6663
vn 0.6663 0.3347 -0.6663
vn 0.7041 0.0919 -0.7041
vn 0.5774 0.5774 -0.5774
vn 0.1004 0.9899 -0.1004
vn 0.3792 0.9201 -0.0981
vn 0.3673 0.8545 -0.3673
vn 0.0981 0.9201 -0.3792
vn 0.7041 0.7041 -0.0919
vn 0.6663 0.6663 -0.3347
vn 0.9899 0.1004 -0.1004
vn 0.9201 0.0981 -0.3792
vn 0.8545 0.3673 -0.3673
vn 0.9201 0.3792 -0.0981
vn 0.1004 -0.9899 -0.1004
vn 0.0981 -0.9201 -0.3792
vn 0.3673 -0.8545 -0.3673
vn 0.3792 -0.9201 -0.0981
vn 0.0919 -0.7041 -0.7041
vn 0.3347 -0.6663 -0.6663
vn 0.6663 -0.6663 -0.3347
vn 0.7041 -0.7041 -0.0919
vn 0.5774 -0.5774 -0.5774
vn 0.1004 -0.1004 -0.9899
vn 0.3792 -0.0981 -0.9201
vn 0.3673 -0.3673 -0.8545
vn 0.0981 -0.3792 -0.9201
vn 0.7041 -0.0919 -0.7041
vn 0.6663 -0.3347 -0.6663
vn 0.9899 -0.1004 -0.1004
vn 0.9201 -0.3792 -0.0981
vn 0.8545 -0.3673 -0.3673
vn 0.9201 -0.0981 -0.3792
vn 0.9899 0.1004 0.1004
vn 0.9201 0.3792 0.0981
vn 0.8545 0.3673 0.3673
vn 0.9201 0.0981 0.3792
vn 0.7041 0.7041 0.0919
vn 0.6663 0.6663 0.3347
vn 0.6663 0.3347 0.6663
vn 0.7041 0.0919 0.7041
vn 0.5774 0.5774 0.5774
vn 0.1004 0.9899 0.1004
vn 0.0981 0.9201 0.3792
vn 0.3673 0.8545 0.3673
vn 0.3792 0.9201 0.0981
vn 0.0919 0.7041 0.7041
vn 0.3347 0.6663 0.6663
vn 0.1004 0.1004 0.9899
vn 0.3792 0.0981 0.9201
vn 0.3673 0.3673 0.8545
vn 0.0981 0.3792 0.9201
vn 0.9899 -0.1004 0.1004
vn 0.9201 -0.0981 0.3792
vn 0.8545 -0.3673 0.3673
vn 0.9201 -0.3792 0.0981
vn 0.7041 -0.0919 0.7041
vn 0.6663 -0.3347 0.6663
vn 0.6663 -0.6663 0.3347
vn 0.7041 -0.7041 0.0919
vn 0.5774 -0.5774 0.5774
vn 0.1004 -0.1004 0.9899
vn 0.0981 -0.3792 0.9201
vn 0.3673 -0.3673 0.8545
vn 0.3792 -0.0981 0.9201
vn 0.0919 -0.7041 0.7041
vn 0.3347 -0.6663 0.6663
vn 0.1004 -0.9899 0.1004
vn 0.3792 -0.9201 0.0981
vn 0.3673 -0.8545 0.3673
vn 0.0981 -0.9201 0.3792
vn -0.1004 0.1004 -0.9899
vn -0.3792 0.0981 -0.9201
vn -0.3673 0.3673 -0.8545
vn -0.0981 0.3792 -0.9201
vn -0.7041 0.0919 -0.7041
vn -0.6663 0.3347 -0.6663
vn -0.3347 0.6663 -0.6663
vn -0.0919 0.7041 -0.7041
vn -0.5774 0.5774 -0.5774
vn -0.9899 0.1004 -0.1004
vn -0.9201 0.3792 -0.0981
vn -0.8545 0.3673 -0.3673
vn -0.9201 0.0981 -0.3792
vn -0.7041 0.7041 -0.0919
vn -0.6663 0.6663 -0.3347
vn -0.1004 0.9899 -0.1004
vn -0.0981 0.9201 -0.3792
vn -0.3673 0.8545 -0.3673
vn -0.3792 0.9201 -0.0981
vn -0.9899 -0.1004 -0.1004
vn -0.9201 -0.0981 -0.3792
vn -0.8545 -0.3673 -0.3673
vn -0.9201 -0.3792 -0.0981
vn -0.7041 -0.0919 -0.7041
vn -0.6663 -0.3347 -0.6663
vn -0.6663 -0.6663 -0.3347
vn -0.7041 -0.7041 -0.0919
vn -0.5774 -0.5774 -0.5774
vn -0.1004 -0.1004 -0.9899
vn -0.0981 -0.3792 -0.9201
vn -0.3673 -0.3673 -0.8545
vn -0.3792 -0.0981 -0.9201
vn -0.0919 -0.7041 -0.7041
vn -0.3347 -0.6663 -0.6663
vn -0.1004 -0.9899 -0.1004
vn -0.3792 -0.9201 -0.0981
vn -0.3673 -0.8545 -0.3673
vn -0.0981 -0.9201 -0.3792
vn -0.9899 0.1004 0.1004
vn -0.9201 0.0981 0.3792
vn -0.8545 0.3673 0.3673
vn -0.9201 0.3792 0.0981
vn -0.7041 0.0919 0.7041
vn -0.6663 0.3347 0.6663
vn -0.6663 0.6663 0.3347
vn -0.7041 0.7041 0.0919
vn -0.5774 0.5774 0.5774
vn -0.1004 0.1004 0.9899
vn -0.0981 0.3792 0.9201
vn -0.3673 0.3673 0.8545
vn -0.3792 0.0981 0.9201
vn -0.0919 0.7041 0.7041
vn -0.3347 0.6663 0.6663
vn -0.1004 0.9899 0.1004
vn -0.3792 0.9201 0.0981
vn -0.3673 0.8545 0.3673
vn -0.0981 0.9201 0.3792
vn -0.1004 -0.9899 0.1004
vn -0.0981 -0.9201 0.3792
vn -0.3673 -0.8545 0.3673
vn -0.3792 -0.9201 0.0981
vn -0.0919 -0.7041 0.7041
vn -0.3347 -0.6663 0.6663
vn -0.6663 -0.6663 0.3347
vn -0.7041 -0.7041 0.0919
vn -0.5774 -0.5774 0.5774
vn -0.1004 -0.1004 0.9899
vn -0.3792 -0.0981 0.9201
vn -0.3673 -0.3673 0.8545
vn -0.0981 -0.3792 0.9201
vn -0.7041 -0.0919 0.7041
vn -0.6663 -0.3347 0.6663
vn -0.9899 -0.1004 0.1004
vn -0.9201 -0.3792 0.0981
vn -0.8545 -0.3673 0.3673
vn -0.9201 -0.0981 0.3792
vt 0.600000 0.475000
vt 0.609567 0.475000
vt 0.609807 0.484807
vt 0.600000 0.484567
vt 0.637500 0.487500
vt 0.632845 0.492155
vt 0.609309 0.500000
vt 0.600000 0.500000
vt 0.621478 0.500000
vt 0.650000 0.525000
vt 0.640433 0.525000
vt 0.640193 0.515193
vt 0.650000 0.515433
vt 0.625000 0.525000
vt 0.625000 0.515691
vt 0.600000 0.525000
vt 0.600000 0.515433
vt 0.609807 0.515193
vt 0.609567 0.525000
vt 0.350000 0.525000
vt 0.350000 0.515433
vt 0.359807 0.515193
vt 0.359567 0.525000
vt 0.362500 0.487500
vt 0.367155 0.492155
vt 0.375000 0.515691
vt 0.375000 0.525000
vt 0.375000 0.503522
vt 0.400000 0.475000
vt 0.400000 0.484567
vt 0.390193 0.484807
vt 0.390433 0.475000
vt 0.400000 0.500000
vt 0.390691 0.500000
vt 0.400000 0.525000
vt 0.390433 0.525000
vt 0.390193 0.515193
vt 0.400000 0.515433
vt 0.600000 0.725000
vt 0.609567 0.725000
vt 0.609807 0.734807
vt 0.600000 0.734567
vt 0.625000 0.725000
vt 0.625000 0.734309
vt 0.609309 0.750000
vt 0.600000 0.750000
vt 0.625000 0.746478
vt 0.650000 0.725000
vt 0.650000 0.734567
vt 0.640193 0.734807
vt 0.640433 0.725000
vt 0.637500 0.762500
vt 0.632845 0.757845
vt 0.600000 0.775000
vt 0.600000 0.765433
vt 0.609807 0.765193
vt 0.609567 0.775000
vt 0.400000 0.725000
vt 0.400000 0.734567
vt 0.390193 0.734807
vt 0.390433 0.725000
vt 0.400000 0.750000
vt 0.390691 0.750000
vt 0.375000 0.734309
vt 0.375000 0.725000
vt 0.378522 0.750000
vt 0.400000 0.775000
vt 0.390433 0.775000
vt 0.390193 0.765193
vt 0.400000 0.765433
vt 0.362500 0.762500
vt 0.367155 0.757845
vt 0.350000 0.725000
vt 0.359567 0.725000
vt 0.359807 0.734807
vt 0.350000 0.734567
vt 0.600000 0.275000
vt 0.600000 0.265433
vt 0.609807 0.265193
vt 0.609567 0.275000
vt 0.600000 0.250000
vt 0.609309 0.250000
vt 0.625000 0.265691
vt 0.625000 0.275000
vt 0.619717 0.244717
vt 0.600000 0.225000
vt 0.609567 0.225000
vt 0.609807 0.234807
vt 0.600000 0.234567
vt 0.625000 0.225000
vt 0.625000 0.234309
vt 0.850000 0.525000
vt 0.850000 0.515433
vt 0.859807 0.515193
vt 0.859567 0.525000
vt 0.850000 0.500000
vt 0.859309 0.500000
vt 0.875000 0.515691
vt 0.875000 0.525000
vt 0.864434 0.500000
vt 0.400000 0.225000
vt 0.400000 0.234567
vt 0.390193 0.234807
vt 0.390433 0.225000
vt 0.400000 0.250000
vt 0.390691 0.250000
vt 0.375000 0.234309
vt 0.375000 0.225000
vt 0.380283 0.255283
vt 0.400000 0.275000
vt 0.390433 0.275000
vt 0.390193 0.265193
vt 0.400000 0.265433
vt 0.375000 0.275000
vt 0.375000 0.265691
vt 0.150000 0.525000
vt 0.140433 0.525000
vt 0.140193 0.515193
vt 0.150000 0.515433
vt 0.125000 0.525000
vt 0.125000 0.515691
vt 0.140691 0.500000
vt 0.150000 0.500000
vt 0.125000 0.510566
vt 0.600000 0.025000
vt 0.600000 0.015433
vt 0.609807 0.015193
vt 0.609567 0.025000
vt 0.600000 0.000000
vt 0.609309 0.000000
vt 0.625000 0.015691
vt 0.625000 0.025000
vt 0.614434 0.000000
vt 0.600000 0.975000
vt 0.609567 0.975000
vt 0.609807 0.984807
vt 0.600000 0.984567
vt 0.625000 0.975000
vt 0.625000 0.984309
vt 0.609309 1.000000
vt 0.600000 1.000000
vt 0.625000 0.989434
vt 0.850000 0.725000
vt 0.859567 0.725000
vt 0.859807 0.734807
vt 0.850000 0.734567
vt 0.875000 0.725000
vt 0.875000 0.734309
vt 0.859309 0.750000
vt 0.850000 0.750000
vt 0.875000 0.739434
vt 0.150000 0.725000
vt 0.150000 0.734567
vt 0.140193 0.734807
vt 0.140433 0.725000
vt 0.150000 0.750000
vt 0.140691 0.750000
vt 0.125000 0.734309
vt 0.125000 0.725000
vt 0.135566 0.750000
vt 0.400000 0.975000
vt 0.400000 0.984567
vt 0.390193 0.984807
vt 0.390433 0.975000
vt 0.400000 1.000000
vt 0.390691 1.000000
vt 0.375000 0.984309
vt 0.375000 0.975000
vt 0.385566 1.000000
vt 0.400000 0.025000
vt 0.390433 0.025000
vt 0.390193 0.015193
vt 0.400000 0.015433
vt 0.375000 0.025000
vt 0.375000 0.015691
vt 0.390691 0.000000
vt 0.400000 0.000000
vt 0.375000 0.010566
s 1
usemtl Material
f 1/1/1 4/2/2 7/3/3 6/4/4
f 4/2/2 5/5/5 8/6/6 7/3/3
f 6/4/4 7/3/3 19/7/7 16/8/8
f 7/3/3 8/6/6 9/9/9 19/7/7
f 2/10/10 10/11/11 13/12/12 12/13/13
f 10/11/11 11/14/14 14/15/15 13/12/12
f 12/13/13 13/12/12 8/6/6 5/5/5
f 13/12/12 14/15/15 9/9/9 8/6/6
f 3/16/16 15/17/17 18/18/18 17/19/19
f 15/17/17 16/8/8 19/7/7 18/18/18
f 17/19/19 18/18/18 14/15/15 11/14/14
f 18/18/18 19/7/7 9/9/9 14/15/15
f 20/20/20 23/21/21 26/22/22 25/23/23
f 23/21/21 24/24/24 27/25/25 26/22/22
f 25/23/23 26/22/22 38/26/26 35/27/27
f 26/22/22 27/25/25 28/28/28 38/26/26
f 21/29/29 29/30/30 32/31/31 31/32/32
f 29/30/30 30/33/33 33/34/34 32/31/31
f 31/32/32 32/31/31 27/25/25 24/24/24
f 32/31/31 33/34/34 28/28/28 27/25/25
f 22/35/35 34/36/36 37/37/37 36/38/38
f 34/36/36 35/27/27 38/26/26 37/37/37
f 36/38/38 37/37/37 33/34/34 30/33/33
f 37/37/37 38/26/26 28/28/28 33/34/34
f 39/39/39 42/40/40 45/41/41 44/42/42
f 42/40/40 43/43/43 46/44/44 45/41/41
f 44/42/42 45/41/41 57/45/45 54/46/46
f 45/41/41 46/44/44 47/47/47 57/45/45
f 40/48/48 48/49/49 51/50/50 50/51/51
f 48/49/49 49/52/52 52/53/53 51/50/50
f 50/51/51 51/50/50 46/44/44 43/43/43
f 51/50/50 52/53/53 47/47/47 46/44/44
f 41/54/54 53/55/55 56/56/56 55/57/57
f 53/55/55 54/46/46 57/45/45 56/56/56
f 55/57/57 56/56/56 52/53/53 49/52/52
f 56/56/56 57/45/45 47/47/47 52/53/53
f 58/58/58 61/59/59 64/60/60 63/61/61
f 61/59/59 62/62/62 65/63/63 64/60/60
f 63/61/61 64/60/60 76/64/64 73/65/65
f 64/60/60 65/63/63 66/66/66 76/64/64
f 59/67/67 67/68/68 70/69/69 69/70/70
f 67/68/68 68/71/71 71/72/72 70/69/69
f 69/70/70 70/69/69 65/63/63 62/62/62
f 70/69/69 71/72/72 66/66/66 65/63/63
f 60/73/73 72/74/74 75/75/75 74/76/76
f 72/74/74 73/65/65 76/64/64 75/75/75
f 74/76/76 75/75/75 71/72/72 68/71/71
f 75/75/75 76/64/64 66/66/66 71/72/72
f 77/77/77 80/78/78 83/79/79 82/80/80
f 80/78/78 81/81/81 84/82/82 83/79/79
f 82/80/80 83/79/79 95/83/83 92/84/84
f 83/79/79 84/82/82 85/85/85 95/83/83
f 78/86/86 86/87/87 89/88/88 88/89/89
f 86/87/87 87/90/90 90/91/91 89/88/88
f 88/89/89 89/88/88 84/82/82 81/81/81
f 89/88/88 90/91/91 85/85/85 84/82/82
f 79/92/92 91/93/93 94/94/94 93/95/95
f 91/93/93 92/96/84 95/97/83 94/94/94
f 93/95/95 94/94/94 90/98/91 87/99/90
f 94/94/94 95/97/83 85/100/85 90/98/91
f 96/101/96 99/102/97 102/103/98 101/104/99
f 99/102/97 100/105/100 103/106/101 102/103/98
f 101/104/99 102/103/98 114/107/102 111/108/103
f 102/103/98 103/106/101 104/109/104 114/107/102
f 97/110/105 105/111/106 108/112/107 107/113/108
f 105/111/106 106/114/109 109/115/110 108/112/107
f 107/113/108 108/112/107 103/106/101 100/105/100
f 108/112/107 109/115/110 104/109/104 103/106/101
f 98/116/111 110/117/112 113/118/113 112/119/114
f 110/117/112 111/120/103 114/121/102 113/118/113
f 112/119/114 113/118/113 109/122/110 106/123/109
f 113/118/113 114/121/102 104/124/104 109/122/110
f 115/125/115 118/126/116 121/127/117 120/128/118
f 118/126/116 119/129/119 122/130/120 121/127/117
f 120/128/118 121/127/117 133/131/121 130/132/122
f 121/127/117 122/130/120 123/133/123 133/131/121
f 116/134/124 124/135/125 127/136/126 126/137/127
f 124/135/125 125/138/128 128/139/129 127/136/126
f 126/137/127 127/136/126 122/140/120 119/141/119
f 127/136/126 128/139/129 123/142/123 122/140/120
f 117/143/130 129/144/131 132/145/132 131/146/133
f 129/144/131 130/147/122 133/148/121 132/145/132
f 131/146/133 132/145/132 128/149/129 125/150/128
f 132/145/132 133/148/121 123/151/123 128/149/129
f 134/152/134 137/153/135 140/154/136 139/155/137
f 137/153/135 138/156/138 141/157/139 140/154/136
f 139/155/137 140/154/136 152/158/140 149/159/141
f 140/154/136 141/157/139 142/160/142 152/158/140
f 135/161/143 143/162/144 146/163/145 145/164/146
f 143/162/144 144/165/147 147/166/148 146/163/145
f 145/164/146 146/163/145 141/167/139 138/168/138
f 146/163/145 147/166/148 142/169/142 141/167/139
f 136/170/149 148/171/150 151/172/151 150/173/152
f 148/171/150 149/174/141 152/175/140 151/172/151
f 150/173/152 151/172/151 147/176/148 144/177/147
f 151/172/151 152/175/140 142/178/142 147/176/148
f 98/116/111 134/152/134 139/155/137 110/117/112
f 110/117/112 139/155/137 149/159/141 111/120/103
f 111/108/103 149/174/141 148/171/150 101/104/99
f 101/104/99 148/171/150 136/170/149 96/101/96
f 20/20/20 98/116/111 112/119/114 23/21/21
f 23/21/21 112/119/114 106/123/109 24/24/24
f 24/24/24 106/114/109 105/111/106 31/32/32
f 31/32/32 105/111/106 97/110/105 21/29/29
f 3/16/16 22/35/35 36/38/38 15/17/17
f 15/17/17 36/38/38 30/33/33 16/8/8
f 16/8/8 30/33/33 29/30/30 6/4/4
f 6/4/4 29/30/30 21/29/29 1/1/1
f 135/161/143 116/134/124 126/137/127 143/162/144
f 143/162/144 126/137/127 119/141/119 144/165/147
f 144/177/147 119/129/119 118/126/116 150/173/152
f 150/173/152 118/126/116 115/125/115 136/170/149
f 41/54/54 59/67/67 69/70/70 53/55/55
f 53/55/55 69/70/70 62/62/62 54/46/46
f 54/46/46 62/62/62 61/59/59 44/42/42
f 44/42/42 61/59/59 58/58/58 39/39/39
f 77/77/77 97/110/105 107/113/108 80/78/78
f 80/78/78 107/113/108 100/105/100 81/81/81
f 81/81/81 100/105/100 99/102/97 88/89/89
f 88/89/89 99/102/97 96/101/96 78/86/86
f 40/48/48 117/143/130 131/146/133 48/49/49
f 48/49/49 131/146/133 125/150/128 49/52/52
f 49/52/52 125/138/128 124/135/125 55/57/57
f 55/57/57 124/135/125 116/134/124 41/54/54
f 2/10/10 40/48/48 50/51/51 10/11/11
f 10/11/11 50/51/51 43/43/43 11/14/14
f 11/14/14 43/43/43 42/40/40 17/19/19
f 17/19/19 42/40/40 39/39/39 3/16/16
f 134/152/134 60/73/73 74/76/76 137/153/135
f 137/153/135 74/76/76 68/71/71 138/156/138
f 138/168/138 68/71/71 67/68/68 145/164/146
f 145/164/146 67/68/68 59/67/67 135/161/143
f 117/143/130 79/92/92 93/95/95 129/144/131
f 129/144/131 93/95/95 87/99/90 130/147/122
f 130/132/122 87/90/90 86/87/87 120/128/118
f 120/128/118 86/87/87 78/86/86 115/125/115
f 79/92/92 2/10/10 12/13/13 91/93/93
f 91/93/93 12/13/13 5/5/5 92/96/84
f 92/84/84 5/5/5 4/2/2 82/80/80
f 82/80/80 4/2/2 1/1/1 77/77/77
f 60/73/73 20/20/20 25/23/23 72/74/74
f 72/74/74 25/23/23 35/27/27 73/65/65
f 73/65/65 35/27/27 34/36/36 63/61/61
f 63/61/61 34/36/36 22/35/35 58/58/58
f 97/110/105 77/77/77 1/1/1 21/29/29
f 22/35/35 3/16/16 39/39/39 58/58/58
f 2/10/10 79/92/92 117/143/130 40/48/48
f 98/116/111 20/20/20 60/73/73 134/152/134
f 59/67/67 41/54/54 116/134/124 135/161/143
f 136/170/149 115/125/115 78/86/86 96/101/96
